<svg xmlns="http://www.w3.org/2000/svg" fill="currentColor" viewBox="0 0 105.39 122.88">
  <path d="M64.89,36.96c-0.01-0.44,0.16-0.84,0.43-1.13c0.28-0.3,0.68-0.49,1.12-0.5c0.44-0.01,0.85,0.15,1.15,0.43 c0.3,0.28,0.49,0.68,0.5,1.12c0.07,1.9,0.27,3.69,0.61,5.37c0.34,1.68,0.81,3.25,1.41,4.71c0.6,1.44,1.32,2.78,2.18,4.01 c0.85,1.23,1.84,2.36,2.95,3.39l0.02,0.02c0.31,0.3,0.48,0.69,0.49,1.09c0.02,0.41-0.12,0.82-0.43,1.15l-0.02,0.02 c-0.3,0.31-0.69,0.48-1.09,0.49h0c-0.41,0.02-0.82-0.13-1.15-0.43c-1.29-1.19-2.42-2.5-3.41-3.92c-0.99-1.42-1.82-2.96-2.51-4.62 c-0.68-1.64-1.21-3.4-1.58-5.27c-0.37-1.86-0.6-3.84-0.67-5.93V36.96L64.89,36.96z M25.66,93.36c0.05,1.97-0.05,3.82-0.3,5.55 c-0.25,1.74-0.64,3.38-1.15,4.92c-0.46,1.39-1.02,2.71-1.66,3.94c-0.6,1.16-1.28,2.27-2.01,3.32c4.19,2.79,9.09,4.88,14.35,6.29 c5.68,1.52,11.77,2.27,17.84,2.27c6.25,0,12.44-0.78,18.11-2.3c5.41-1.45,10.34-3.57,14.36-6.31c-0.72-1.2-1.36-2.41-1.93-3.65 c-0.61-1.3-1.14-2.63-1.6-3.98c-0.52-1.55-0.96-3.13-1.29-4.75c-0.34-1.61-0.58-3.25-0.74-4.93c-0.01-0.09-0.01-0.17,0-0.26l0,0 c0-0.07,0.02-0.15,0.03-0.22c-0.27-5.43,0.56-10.66,1.99-15.86c1.43-5.2,3.44-10.38,5.53-15.73l0,0 c2.59-6.65,5.29-13.57,7.03-21.07c0.1-0.43,0.36-0.78,0.71-1l0.02-0.01c0.35-0.21,0.77-0.29,1.2-0.2c0.43,0.1,0.78,0.36,1,0.71 c0.22,0.35,0.3,0.78,0.21,1.21c-0.89,3.85-2.03,7.54-3.27,11.12c-1.24,3.58-2.58,7.02-3.9,10.4c-1.76,4.53-3.48,8.94-4.81,13.31 c-1.24,4.08-2.14,8.13-2.44,12.24c2.89-4.27,5.54-8.63,7.87-13.09c2.47-4.71,4.59-9.54,6.32-14.51c1.94-5.61,3.38-11.4,4.22-17.42 c0.84-6.01,1.07-12.24,0.62-18.72c-0.86-5.22-2.5-7.91-4.68-9.36c-2.18-1.45-4.93-1.66-7.96-1.9c-1.54-0.12-3.15-0.25-4.82-0.51 c-1.67-0.27-3.39-0.67-5.14-1.35c-0.97-0.38-1.89-0.8-2.78-1.27c-0.88-0.47-1.73-0.98-2.54-1.54c-0.75-0.51-1.46-1.06-2.15-1.65 c-0.67-0.57-1.31-1.16-1.92-1.79c-2.87-0.68-5.71-1.19-8.54-1.54c-2.85-0.35-5.69-0.52-8.49-0.52c-2.81,0-5.6,0.17-8.38,0.52 c-2.75,0.34-5.49,0.85-8.2,1.53c-0.87,0.86-1.81,1.67-2.82,2.43c-1.02,0.76-2.12,1.47-3.29,2.11c-1.22,0.67-2.52,1.27-3.9,1.79 c-1.38,0.52-2.85,0.98-4.4,1.35c-1.57,0.38-3.01,0.63-4.34,0.81c-1.34,0.18-2.55,0.28-3.66,0.38c-2.96,0.26-5.18,0.45-6.87,2.08 c-1.7,1.65-2.91,4.78-3.85,10.94c0.16,6.49,0.82,12.64,1.91,18.51c1.09,5.87,2.62,11.45,4.53,16.78c1.67,4.67,3.65,9.16,5.87,13.47 c2.09,4.05,4.41,7.95,6.93,11.73c-0.29-4.1-1.15-8.13-2.33-12.17c-1.27-4.34-2.9-8.7-4.59-13.2l0-0.01 c-2.46-6.55-5.02-13.39-6.77-20.93l0-0.01c-0.1-0.43-0.01-0.86,0.21-1.21c0.22-0.35,0.57-0.61,1-0.71l0.01,0 c0.43-0.1,0.86-0.01,1.21,0.21l0.01,0.01c0.34,0.22,0.6,0.57,0.7,0.99c1.71,7.37,4.23,14.09,6.65,20.54l0.01,0.02 c2.02,5.39,3.97,10.58,5.33,15.81c1.37,5.25,2.15,10.54,1.83,16.09c0,0.06-0.01,0.12-0.02,0.17L25.66,93.36L25.66,93.36z M21.17,102.81c0.46-1.39,0.81-2.88,1.03-4.47c0.22-1.59,0.3-3.28,0.24-5.1c-3.25-4.53-6.22-9.24-8.87-14.17 c-2.66-4.95-4.99-10.13-6.94-15.56c-1.97-5.49-3.54-11.24-4.66-17.28c-1.12-6.04-1.79-12.38-1.96-19.06C0,27.11,0,27.04,0,26.98 c0-0.07,0.01-0.14,0.02-0.2c1.12-7.4,2.63-11.19,4.82-13.23c2.2-2.05,5.04-2.3,8.82-2.63l0.01,0c2.16-0.19,4.68-0.41,7.52-1.1 c1.41-0.34,2.75-0.75,4-1.23c1.25-0.48,2.43-1.01,3.52-1.61c1.08-0.59,2.1-1.25,3.04-1.96c0.94-0.71,1.82-1.49,2.63-2.32l0.02-0.02 c0.09-0.09,0.2-0.18,0.32-0.25c0.13-0.07,0.26-0.13,0.41-0.17l0.02,0c2.92-0.75,5.86-1.32,8.82-1.69C46.94,0.19,49.93,0,52.94,0 c3,0,6.01,0.19,9.04,0.56c3.03,0.37,6.07,0.93,9.14,1.68c0.16,0.03,0.32,0.09,0.47,0.17c0.14,0.08,0.28,0.18,0.39,0.31 c0.59,0.63,1.21,1.22,1.86,1.78c0.65,0.56,1.32,1.08,2.03,1.57c0.7,0.48,1.44,0.93,2.22,1.35c0.77,0.41,1.59,0.78,2.43,1.11 c3.04,1.18,6.15,1.42,9.03,1.65l0.03,0c3.68,0.29,7.02,0.55,9.73,2.36c2.72,1.81,4.76,5.16,5.82,11.59l0.02,0.12l0.01,0.13 c0.47,6.71,0.23,13.17-0.64,19.4c-0.87,6.23-2.35,12.24-4.37,18.05c-1.99,5.73-4.48,11.26-7.39,16.62 c-2.9,5.34-6.21,10.52-9.86,15.59c0.16,1.42,0.38,2.82,0.68,4.2c0.3,1.41,0.69,2.79,1.14,4.14c0.48,1.43,1.06,2.83,1.72,4.2 c0.66,1.37,1.42,2.71,2.27,4.01l0.01,0.02c0.22,0.35,0.29,0.75,0.22,1.13c-0.07,0.39-0.28,0.75-0.62,1 c-4.33,3.25-9.76,5.75-15.75,7.45c-6.2,1.76-13,2.67-19.84,2.67c-6.64,0-13.33-0.86-19.54-2.62c-5.84-1.66-11.25-4.12-15.8-7.43 l-0.11-0.08c-0.35-0.27-0.56-0.66-0.61-1.07c-0.05-0.41,0.05-0.84,0.33-1.19c0.88-1.14,1.69-2.33,2.39-3.6l0.01-0.02 c0.69-1.25,1.29-2.58,1.76-4.01L21.17,102.81L21.17,102.81z M37.91,36.87c0.02-0.44,0.21-0.83,0.5-1.1 c0.3-0.28,0.71-0.45,1.15-0.43c0.44,0.01,0.84,0.21,1.12,0.5c0.28,0.3,0.45,0.71,0.43,1.15c-0.07,2.09-0.3,4.07-0.67,5.93 c-0.38,1.87-0.91,3.63-1.58,5.27c-0.68,1.65-1.52,3.19-2.5,4.61c-0.99,1.42-2.12,2.73-3.41,3.92l-0.03,0.03 c-0.32,0.29-0.73,0.42-1.13,0.41c-0.41-0.02-0.81-0.19-1.11-0.51l-0.03-0.03c-0.29-0.32-0.42-0.73-0.41-1.13 c0.02-0.41,0.19-0.81,0.51-1.11c1.11-1.03,2.1-2.16,2.95-3.4c0.85-1.23,1.58-2.57,2.17-4c0.6-1.46,1.08-3.03,1.41-4.72 c0.34-1.68,0.54-3.47,0.6-5.36L37.91,36.87L37.91,36.87z"/>
</svg>
