<svg xmlns="http://www.w3.org/2000/svg" fill="currentColor" viewBox="0 0 118.04 122.88">
  <path d="M69.36,68.39c-0.7,3.09-1.21,6.42-1.58,9.94c-0.39,3.77-0.6,7.77-0.67,11.95c-0.08,4.63,0,9.51,0.21,14.57 c0.2,5.04,0.53,10.27,0.92,15.64c0.04,0.61-0.17,1.19-0.54,1.62c-0.38,0.43-0.91,0.72-1.53,0.76c-0.61,0.04-1.19-0.17-1.62-0.54 c-0.43-0.38-0.72-0.91-0.76-1.53c-0.39-5.36-0.71-10.63-0.92-15.76c-0.2-5.12-0.29-10.08-0.2-14.83c0.08-4.63,0.33-9.03,0.78-13.17 c0.44-4.03,1.08-7.82,1.96-11.3c-1.56-1.43-2.9-3.24-4.03-5.4c-0.93-1.77-1.71-3.78-2.35-6.03c-0.64,2.25-1.42,4.26-2.35,6.03 c-1.13,2.16-2.47,3.97-4.03,5.4c0.88,3.48,1.52,7.27,1.96,11.3c0.45,4.13,0.7,8.54,0.78,13.17c0.09,4.75,0,9.71-0.2,14.83 c-0.2,5.13-0.53,10.4-0.92,15.76c-0.04,0.61-0.33,1.15-0.76,1.53c-0.43,0.37-1.01,0.58-1.62,0.54c-0.61-0.04-1.15-0.33-1.53-0.76 c-0.37-0.43-0.58-1-0.54-1.62c0.39-5.36,0.71-10.6,0.92-15.64c0.2-5.06,0.29-9.94,0.21-14.57c-0.08-4.18-0.29-8.18-0.68-11.95 c-0.36-3.52-0.88-6.85-1.58-9.94c-3.2,1.47-6.97,1.83-11.31,1.05c-4.55-0.82-9.74-2.9-15.59-6.28c-0.02-0.01-0.05-0.02-0.07-0.04 c-0.51-0.31-0.86-0.8-1-1.34c-0.14-0.54-0.09-1.13,0.2-1.65c0.01-0.02,0.03-0.05,0.04-0.07c0.31-0.51,0.8-0.86,1.34-1 c0.55-0.15,1.16-0.08,1.69,0.23c5.72,3.31,10.63,5.25,14.76,5.88c4.06,0.62,7.36-0.03,9.92-1.91c2.65-1.94,4.64-5.2,5.98-9.74 c1.37-4.6,2.08-10.5,2.15-17.63c0-0.23,0.03-0.44,0.11-0.67l0,0c0.02-0.05,0.04-0.1,0.06-0.15c0.09-0.2,0.19-0.39,0.34-0.56l0,0 c0.03-0.04,0.07-0.08,0.11-0.12l0,0c0.2-0.2,0.38-0.35,0.64-0.47l0,0c0.76-0.37,1.73-0.28,2.38,0.27l0,0 c0.02,0.02,0.21,0.2,0.22,0.21c0.02,0.02,0.03,0.03,0.05,0.05c0.18,0.15,0.37,0.57,0.45,0.79c0,0,0.03,0.1,0.03,0.1 c0.05,0.18,0.07,0.37,0.08,0.57c0.07,7.13,0.78,13.03,2.15,17.63c1.35,4.54,3.33,7.8,5.98,9.74c2.56,1.88,5.86,2.53,9.92,1.91 c4.13-0.63,9.05-2.58,14.76-5.88c0.53-0.31,1.14-0.37,1.69-0.23c0.55,0.15,1.05,0.5,1.36,1.04l0.01,0.01 c0.3,0.53,0.37,1.13,0.22,1.68c-0.15,0.55-0.5,1.05-1.04,1.36l-0.01,0c-5.86,3.39-11.06,5.47-15.62,6.3 C76.33,70.22,72.57,69.86,69.36,68.39L69.36,68.39z M15.46,1.13c0.3-0.54,0.79-0.9,1.34-1.05c0.55-0.15,1.15-0.1,1.69,0.2 c0.54,0.3,0.9,0.79,1.05,1.34c0.15,0.55,0.1,1.15-0.2,1.69l-0.02,0.04C14.43,12.01,10.72,20.88,8.22,30 c-2.49,9.12-3.77,18.48-3.77,28.08c-0.01,9.62,1.26,19.5,3.84,29.65c2.58,10.16,6.48,20.58,11.73,31.27l0,0.01 c0.27,0.55,0.29,1.16,0.1,1.69c-0.18,0.54-0.58,1.01-1.13,1.28l-0.01,0.01c-0.55,0.26-1.15,0.28-1.69,0.1 c-0.54-0.18-1.01-0.58-1.28-1.13l0,0c-5.4-11-9.41-21.73-12.06-32.2C1.3,78.27-0.01,68.05,0,58.08c0.01-10,1.33-19.73,3.92-29.22 C6.51,19.37,10.37,10.13,15.46,1.13L15.46,1.13L15.46,1.13z M98.71,3.32c-0.3-0.53-0.36-1.14-0.2-1.69 c0.15-0.55,0.52-1.04,1.05-1.34c0.53-0.3,1.14-0.36,1.69-0.2c0.55,0.15,1.04,0.52,1.34,1.05l0.02,0.04 c5.08,8.99,8.93,18.21,11.52,27.68c2.59,9.49,3.91,19.23,3.92,29.22c0.01,9.98-1.3,20.2-3.95,30.67 c-2.65,10.47-6.66,21.2-12.07,32.2c-0.27,0.55-0.74,0.94-1.28,1.13c-0.52,0.18-1.11,0.16-1.65-0.08c-0.03-0.01-0.07-0.03-0.1-0.05 c-0.53-0.27-0.9-0.73-1.08-1.25c-0.18-0.52-0.16-1.11,0.08-1.65c0.01-0.03,0.03-0.06,0.04-0.09c5.24-10.67,9.13-21.08,11.71-31.22 c2.58-10.15,3.84-20.03,3.84-29.65c-0.01-9.6-1.28-18.96-3.77-28.08C107.32,20.87,103.61,11.98,98.71,3.32L98.71,3.32L98.71,3.32z"/>
</svg>
